<?xml version="1.0" encoding="UTF-8" standalone="no"?>
<svg
   xmlns:dc="http://purl.org/dc/elements/1.1/"
   xmlns:cc="http://creativecommons.org/ns#"
   xmlns:rdf="http://www.w3.org/1999/02/22-rdf-syntax-ns#"
   xmlns:svg="http://www.w3.org/2000/svg"
   xmlns="http://www.w3.org/2000/svg"
   xmlns:xlink="http://www.w3.org/1999/xlink"
   xmlns:sodipodi="http://sodipodi.sourceforge.net/DTD/sodipodi-0.dtd"
   xmlns:inkscape="http://www.inkscape.org/namespaces/inkscape"
   aria-hidden="true"
   data-prefix="fas"
   data-icon="sign"
   class="svg-inline--fa fa-sign fa-w-16"
   role="img"
   viewBox="0 0 512 512"
   id="svg4210"
   version="1.1"
   inkscape:version="0.91 r13725"
   sodipodi:docname="sign.svg">
  <metadata
     id="metadata4218">
    <rdf:RDF>
      <cc:Work
         rdf:about="">
        <dc:format>image/svg+xml</dc:format>
        <dc:type
           rdf:resource="http://purl.org/dc/dcmitype/StillImage" />
      </cc:Work>
    </rdf:RDF>
  </metadata>
  <defs
     id="defs4216">
    <g
       id="d">
      <g
         id="b">
        <path
           transform="rotate(18 3.157 -.5)"
           d="M0 0v1h.5z"
           id="a" />
        <use
           id="use5806"
           xlink:href="#a"
           transform="scale(-1 1)"
           height="100%"
           width="100%" />
      </g>
      <g
         id="c">
        <use
           id="use5809"
           xlink:href="#b"
           transform="rotate(72)"
           height="100%"
           width="100%" />
        <use
           id="use5811"
           xlink:href="#b"
           transform="rotate(144)"
           height="100%"
           width="100%" />
      </g>
      <use
         id="use5813"
         xlink:href="#c"
         transform="scale(-1 1)"
         height="100%"
         width="100%" />
    </g>
  </defs>
  <sodipodi:namedview
     pagecolor="#ffffff"
     bordercolor="#666666"
     borderopacity="1"
     objecttolerance="10"
     gridtolerance="10"
     guidetolerance="10"
     inkscape:pageopacity="0"
     inkscape:pageshadow="2"
     inkscape:window-width="1302"
     inkscape:window-height="812"
     id="namedview4214"
     showgrid="false"
     inkscape:zoom="0.55048947"
     inkscape:cx="287.36294"
     inkscape:cy="256"
     inkscape:window-x="53"
     inkscape:window-y="0"
     inkscape:window-maximized="0"
     inkscape:current-layer="svg4210" />
  <path
     fill="currentColor"
     d="M496 64H128V16c0-8.8-7.2-16-16-16H80c-8.8 0-16 7.2-16 16v48H16C7.2 64 0 71.2 0 80v32c0 8.8 7.2 16 16 16h48v368c0 8.8 7.2 16 16 16h32c8.8 0 16-7.2 16-16V128h368c8.8 0 16-7.2 16-16V80c0-8.8-7.2-16-16-16zM160 384h320V160H160v224z"
     id="path4212"
     style="fill:#f8f9fa;fill-opacity:1;stroke:none;stroke-opacity:1;stroke-width:1;stroke-miterlimit:4;stroke-dasharray:none" />
  <g
     id="g5848"
     transform="matrix(0.24061651,0,0,0.24061651,348.18623,252.88149)">
    <circle
       id="circle5815"
       r="230"
       cy="230"
       cx="230"
       style="fill:#003399" />
    <g
       id="g5817"
       transform="matrix(30,0,0,30,230,232.865)"
       style="fill:#ffcc00">
      <use
         id="use5819"
         xlink:href="#d"
         y="-6"
         height="100%"
         width="100%"
         x="0" />
      <use
         id="use5821"
         xlink:href="#d"
         y="6"
         height="100%"
         width="100%"
         x="0" />
      <g
         id="e">
        <use
           id="use5824"
           xlink:href="#d"
           x="-6"
           height="100%"
           width="100%"
           y="0" />
        <use
           id="use5826"
           xlink:href="#d"
           transform="matrix(-0.80901699,-0.58778525,0.58778525,-0.80901699,-3.000109,-5.1947945)"
           height="100%"
           width="100%"
           x="0"
           y="0" />
        <use
           id="use5828"
           xlink:href="#d"
           transform="matrix(-0.80901699,0.58778525,-0.58778525,-0.80901699,-5.1947945,-3.000109)"
           height="100%"
           width="100%"
           x="0"
           y="0" />
        <use
           id="use5830"
           xlink:href="#d"
           transform="matrix(0.30901699,0.95105652,-0.95105652,0.30901699,-5.1964471,3.0002958)"
           height="100%"
           width="100%"
           x="0"
           y="0" />
        <use
           id="use5832"
           xlink:href="#d"
           transform="matrix(0.30901699,0.95105652,-0.95105652,0.30901699,-2.9995656,5.1965478)"
           height="100%"
           width="100%"
           x="0"
           y="0" />
      </g>
      <use
         id="use5834"
         xlink:href="#e"
         transform="scale(-1,1)"
         height="100%"
         width="100%"
         x="0"
         y="0" />
    </g>
  </g>
</svg>
