<svg xmlns="http://www.w3.org/2000/svg" width="29" height="40">
  <g fill="none" fill-rule="evenodd">
    <path fill="#cb4893" fill-rule="nonzero" d="M14.5 0C6.483571 0 0 6.26 0 14c0 10.5 14.5 26 14.5 26S29 24.5 29 14c0-7.74-6.483571-14-14.5-14z"/>
    <path fill="#ffffff" d="M17.122359 4.727457l1.642909-.238728L19.5 3l.734732 1.488729 1.642909.238728-1.18882 1.158814.280642 1.636272L19.5 6.75l-1.469463.772543.280642-1.636272zM22 11.90983l1.727457-.263932L24.5 10l.772543 1.645898L27 11.90983l-1.25 1.281153L26.045085 15 24.5 14.145898 22.954915 15 23.25 13.190983zM8.122359 3.727457l1.642909-.238728L10.5 2l.734732 1.488729 1.642909.238728-1.18882 1.158814.280642 1.636272L10.5 5.75l-1.469463.772543.280642-1.636272zM3.122359 10.727457l1.642909-.238728L5.5 9l.734732 1.488729 1.642909.238728-1.18882 1.158814.280642 1.636272L5.5 12.75l-1.469463.772543.280642-1.636272zM19.122359 20.727457l1.642909-.238728L21.5 19l.734732 1.488729 1.642909.238728-1.18882 1.158814.280642 1.636272L21.5 22.75l-1.469463.772543.280642-1.636272zM12.122359 22.727457l1.642909-.238728L14.5 21l.734732 1.488729 1.642909.238728-1.18882 1.158814.280642 1.636272L14.5 24.75l-1.469463.772543.280642-1.636272zM4.122359 19.727457l1.642909-.238728L6.5 18l.734732 1.488729 1.642909.238728-1.18882 1.158814.280642 1.636272L6.5 21.75l-1.469463.772543.280642-1.636272z"/>
    <g transform="translate(9 9)">
      <rect width="11" height="10" fill="#fff" rx="1"/>
      <path fill="#cb4893" d="M4.039967 1.080592h2.885691v7.870066H4.039967z"/>
      <path fill="#cb4893" d="M1.154276 3.703947H9.81135v2.623356H1.154276z"/>
    </g>
  </g>
</svg>
