<svg xmlns="http://www.w3.org/2000/svg" width="1941.7852" height="701.08661" fill="none" stroke-linecap="square" stroke-miterlimit="10" viewBox="0 0 1941.7851 701.08661">
  <clipPath id="a">
    <path d="M0 0h397.79004v701.0866H0V0z"/>
  </clipPath>
  <g clip-path="url(#a)">
    <path fill="none" d="M0 0h397.79004v701.0866H0z"/>
    <path fill="#0f73ae" fill-rule="evenodd" d="M8.018373 176.3622c0-93.079544 86.03184-168.53543 192.157487-168.53543 106.12566 0 192.15749 75.45588 192.15749 168.53543 0 93.07954-86.03183 168.53545-192.15749 168.53545-106.125647 0-192.157487-75.4559-192.157487-168.53545z"/>
    <path fill="#0f73ae" fill-rule="evenodd" d="M385.7676 217.99475l-185.59056 470.6142-185.59055-470.6142z"/>
  </g>
  <g fill="#000" stroke-linecap="butt" font-family="Bariol" font-size="466.708435" font-weight="400" letter-spacing="0" word-spacing="0" style="line-height:125%">
    <path style="line-height:125%;-inkscape-font-specification:'Bariol, Normal';text-align:start" d="M694.92976 256.05112c-35.93654 0-56.47172 14.46797-68.13943 32.6696-11.201-18.66834-35.93655-32.6696-74.20664-32.6696-30.33605 0-52.73805 15.40138-60.67209 32.6696v-14.93467c0-8.40076-6.53392-14.93467-14.93467-14.93467-8.40076 0-14.93467 6.53391-14.93467 14.93467v189.48362c0 8.40075 6.53391 14.93467 14.93467 14.93467 8.40075 0 14.93467-6.53392 14.93467-14.93467V347.99269c0-39.20351 14.00125-65.33918 57.40513-65.33918 45.73743 0 57.40514 25.20225 57.40514 62.07222v118.54394c0 8.40075 6.53392 14.93467 14.93467 14.93467s14.93467-6.53392 14.93467-14.93467V338.65852c0-34.53643 18.20163-56.00501 58.33855-56.00501 45.27072 0 58.33856 25.20225 58.33856 62.07222v118.54394c0 8.40075 6.53392 14.93467 14.93467 14.93467s14.93467-6.53392 14.93467-14.93467V338.65852c0-39.67022-16.3348-82.6074-88.2079-82.6074zM819.9493 540.27656c-7.93405 0-14.00126 6.06721-14.00126 14.00126 0 7.93404 6.06721 14.00125 14.00126 14.00125 44.3373 0 68.13943-23.33542 87.27447-69.07285l91.94157-218.88626c.4667-1.40012 1.40016-3.26696 1.40016-6.53391 0-8.40076-6.53396-14.93467-14.93471-14.93467s-12.13442 5.13379-14.00125 9.80087l-65.80589 161.01441-65.80589-161.01441c-1.86683-4.66708-5.6005-9.80087-14.00125-9.80087s-14.93467 6.53391-14.93467 14.93467c0 3.26695.93341 5.13379 1.40012 6.53391l77.94031 185.28325c-19.13504 47.13755-29.86934 74.67335-70.47297 74.67335zM1016.8419 368.06115c0 78.40702 38.7368 112.47673 100.809 112.47673 41.5371 0 65.8059-19.13504 72.8065-26.13567 2.8003-2.80025 5.1338-5.6005 5.1338-10.73429 0-7.46734-6.0672-13.53455-13.5345-13.53455-3.7337 0-5.6005.93342-8.4008 2.80025-13.0678 9.80088-28.9359 20.06846-56.005 20.06846-43.8706 0-70.4729-29.86934-70.4729-76.07347h136.2788c18.6684 0 18.6684-16.3348 18.6684-29.86934 0-31.73617-14.468-91.00815-89.1414-91.00815-60.6721 0-96.1419 40.13693-96.1419 112.01003zm155.8806-17.26821H1047.178c2.8002-41.53705 25.2022-67.67273 65.8058-67.67273 48.071 0 59.7387 34.06972 59.7387 67.67273zM1258.0573 258.85138c-8.4008 0-14.9347 6.53391-14.9347 14.93467v121.8109c0 44.3373 14.9347 84.94093 86.8078 84.94093 72.3398 0 86.8077-40.60363 86.8077-84.94093v-121.8109c0-8.40076-6.5339-14.93467-14.4679-14.93467-8.4008 0-15.4014 6.53391-15.4014 14.93467v121.8109c0 30.33605-9.8009 56.47172-56.9384 56.47172-47.1376 0-56.9385-26.13567-56.9385-56.47172v-121.8109c0-8.40076-7.0006-14.93467-14.9346-14.93467zM1479.9406 478.20434c13.5346 0 21.9353-6.53392 21.9353-21.9353 0-15.40137-8.4007-22.402-21.9353-22.402-13.5345 0-21.9352 7.00063-21.9352 22.402 0 15.40138 8.4007 21.9353 21.9352 21.9353zM1557.9539 258.85138c-8.4008 0-14.9347 6.53391-14.9347 14.93467v121.8109c0 44.3373 14.9347 84.94093 86.8078 84.94093 72.3398 0 86.8078-40.60363 86.8078-84.94093v-121.8109c0-8.40076-6.534-14.93467-14.468-14.93467-8.4008 0-15.4014 6.53391-15.4014 14.93467v121.8109c0 30.33605-9.8009 56.47172-56.9384 56.47172-47.1376 0-56.9384-26.13567-56.9384-56.47172v-121.8109c0-8.40076-7.0007-14.93467-14.9347-14.93467zM1926.8505 478.20434c8.4007 0 14.9346-6.53392 14.9346-14.93467 0-2.80025-.4667-6.06721-3.2669-9.33417l-83.0741-106.87623 76.5402-61.13881c4.667-3.73366 6.0672-8.40075 6.0672-12.13441 0-8.40076-6.5339-14.93467-14.9347-14.93467-2.8002 0-6.5339.4667-10.2676 3.73366l-110.1432 90.07473V157.10894c0-8.40076-6.5339-14.93467-14.9346-14.93467-8.4008 0-14.9347 6.53391-14.9347 14.93467v306.16073c0 8.40075 6.5339 14.93467 14.9347 14.93467 8.4007 0 14.9346-6.53392 14.9346-14.93467v-75.14006l28.4692-22.86871 82.6074 105.94281c3.7337 4.66709 7.9341 7.00063 13.0679 7.00063z"/>
  </g>
</svg>
