<svg xmlns="http://www.w3.org/2000/svg" width="29" height="40">
  <g fill="none" fill-rule="evenodd">
    <path fill="#e66400" fill-rule="nonzero" d="M14.5 0C6.483571 0 0 6.26 0 14c0 10.5 14.5 26 14.5 26S29 24.5 29 14c0-7.74-6.483571-14-14.5-14z"/>
    <path fill="#fc0" d="M17.122359 4.727457l1.642909-.238728L19.5 3l.734732 1.488729 1.642909.238728-1.18882 1.158814.280642 1.636272L19.5 6.75l-1.469463.772543.280642-1.636272zM22 11.90983l1.727457-.263932L24.5 10l.772543 1.645898L27 11.90983l-1.25 1.281153L26.045085 15 24.5 14.145898 22.954915 15 23.25 13.190983zM8.122359 3.727457l1.64291-.238728L10.5 2l.734732 1.488729 1.642909.238728-1.18882 1.158814.280642 1.636272L10.5 5.75l-1.469463.772543.280642-1.636272zM3.122359 10.727457l1.64291-.238728L5.5 9l.734732 1.488729 1.64291.238728-1.188821 1.158814.280642 1.636272L5.5 12.75l-1.469463.772543.280642-1.636272zM19.122359 20.727457l1.642909-.238728L21.5 19l.734732 1.488729 1.642909.238728-1.18882 1.158814.280642 1.636272L21.5 22.75l-1.469463.772543.280642-1.636272zM12.122359 22.727457l1.642909-.238728L14.5 21l.734732 1.488729 1.642909.238728-1.18882 1.158814.280642 1.636272L14.5 24.75l-1.469463.772543.280642-1.636272zM4.122359 19.727457l1.64291-.238728L6.5 18l.734732 1.488729 1.64291.238728-1.188821 1.158814.280642 1.636272L6.5 21.75l-1.469463.772543.280642-1.636272z"/>
    <path fill="#fff" d="M20.539854 10.619872v6.399469c0 .588838-.477735 1.066579-1.066579 1.066579h-9.243673c-.588844 0-1.06658-.477741-1.06658-1.066579v-6.399469c0-.588839.477736-1.06658 1.06658-1.06658h1.955394l.273308-.731046c.155544-.415523.553288-.691055.997693-.691055h2.788658c.444411 0 .842155.275532.997699.691055l.275532.731047h1.955389c.588844 0 1.066579.47774 1.066579 1.066579zm-3.021968 3.199737c0-1.470992-1.195459-2.666444-2.666445-2.666444-1.470991 0-2.666445 1.195452-2.666445 2.666444 0 1.470986 1.195454 2.666445 2.666445 2.666445 1.470986 0 2.666445-1.195459 2.666445-2.666445zm-.711056 0c0 1.077684-.877705 1.955389-1.955389 1.955389-1.077689 0-1.955393-.877705-1.955393-1.955389 0-1.077689.877704-1.955395 1.955393-1.955395 1.077684 0 1.955389.877706 1.955389 1.955395z"/>
  </g>
</svg>
