<svg xmlns="http://www.w3.org/2000/svg" width="46" height="46">
  <g fill="none" fill-rule="evenodd">
    <circle cx="23" cy="23" r="23" fill="#039"/>
    <g fill="#fc0" transform="rotate(-45 26.960155 -.146447)">
      <path d="M8.18556 16.371119C3.6648 16.371119 0 12.706319 0 8.185559 0 3.6648 3.6648 0 8.18556 0c4.520759 0 8.185559 3.6648 8.185559 8.18556 0 4.520759-3.6648 8.185559-8.18556 8.185559zm0-2.112403c3.354111 0 6.073156-2.719045 6.073156-6.073157s-2.719045-6.073157-6.073157-6.073157S2.112402 4.831447 2.112402 8.18556s2.719045 6.073157 6.073157 6.073157z"/>
      <rect width="4.752905" height="11.618213" x="5.809106" y="14.258716" rx="2.376453"/>
    </g>
    <path fill="#fc0" d="M18.122359 2.727457l1.642909-.238728L20.5 1l.734732 1.488729 1.642909.238728-1.18882 1.158814.280642 1.636272L20.5 4.75l-1.469463.772543.280642-1.636272zM6.122359 9.727457l1.64291-.238728L8.5 8l.734732 1.488729 1.642909.238729-1.18882 1.158813.280642 1.636272L8.5 11.75l-1.469463.772543.280642-1.636272zM1 21.90983l1.727457-.263932L3.5 20l.772543 1.645898L6 21.90983l-1.25 1.281153L5.045085 25 3.5 24.145898 1.954915 25 2.25 23.190983zM30.122359 5.727457l1.642909-.238728L32.5 4l.734732 1.488729 1.642909.238728-1.18882 1.158814.280642 1.636272L32.5 7.75l-1.469463.772543.280642-1.636272zM39.122359 14.727457l1.642909-.238728L41.5 13l.734732 1.488729 1.642909.238728-1.18882 1.158814.280642 1.636272L41.5 16.75l-1.469463.772543.280642-1.636272zM39 27.90983l1.727457-.263932L41.5 26l.772543 1.645898L44 27.90983l-1.25 1.281153L43.045085 31 41.5 30.145898 39.954915 31 40.25 29.190983zM5.122359 33.727457l1.64291-.238728L7.5 32l.734732 1.488729 1.64291.238728-1.188821 1.158814.280642 1.636272L7.5 35.75l-1.469463.772543.280642-1.636272zM17 40.727457l1.64291-.238728L19.377641 39l.734732 1.488729 1.64291.238728-1.188821 1.158814.280642 1.636272L19.377641 42.75l-1.469463.772543.280643-1.636272zM31 37.90983l1.727457-.263932L33.5 36l.772543 1.645898L36 37.90983l-1.25 1.281153L35.045085 41 33.5 40.145898 31.954915 41 32.25 39.190983z"/>
  </g>
</svg>
